<svg width="21" height="22" viewBox="0 0 21 22" fill="none" xmlns="http://www.w3.org/2000/svg">
<path d="M19.25 7.95793V3.98543C19.25 2.75168 18.69 2.25293 17.2988 2.25293H13.7637C12.3725 2.25293 11.8125 2.75168 11.8125 3.98543V7.94918C11.8125 9.19168 12.3725 9.68168 13.7637 9.68168H17.2988C18.69 9.69043 19.25 9.19168 19.25 7.95793Z" fill="#3439CA"/>
<path d="M19.25 17.8017V14.2667C19.25 12.8754 18.69 12.3154 17.2988 12.3154H13.7637C12.3725 12.3154 11.8125 12.8754 11.8125 14.2667V17.8017C11.8125 19.1929 12.3725 19.7529 13.7637 19.7529H17.2988C18.69 19.7529 19.25 19.1929 19.25 17.8017Z" fill="#3439CA"/>
<path d="M9.1875 7.95793V3.98543C9.1875 2.75168 8.6275 2.25293 7.23625 2.25293H3.70125C2.31 2.25293 1.75 2.75168 1.75 3.98543V7.94918C1.75 9.19168 2.31 9.68168 3.70125 9.68168H7.23625C8.6275 9.69043 9.1875 9.19168 9.1875 7.95793Z" fill="#3439CA"/>
<path d="M9.1875 17.8017V14.2667C9.1875 12.8754 8.6275 12.3154 7.23625 12.3154H3.70125C2.31 12.3154 1.75 12.8754 1.75 14.2667V17.8017C1.75 19.1929 2.31 19.7529 3.70125 19.7529H7.23625C8.6275 19.7529 9.1875 19.1929 9.1875 17.8017Z" fill="#3439CA"/>
</svg>
