<svg width="73" height="76" viewBox="0 0 73 76" fill="none" xmlns="http://www.w3.org/2000/svg">
<rect x="0.431885" y="0.681641" width="72.5037" height="74.6361" rx="8.52984" fill="#E6F3FB"/>
<path d="M44.6969 16.167H27.2386C19.6553 16.167 15.1344 20.6878 15.1344 28.2712V45.7295C15.1344 53.3128 19.6553 57.8337 27.2386 57.8337H44.6969C52.2803 57.8337 56.8011 53.3128 56.8011 45.7295V28.2712C56.8011 20.6878 52.2803 16.167 44.6969 16.167ZM31.7386 43.042L27.0511 47.7295C26.7386 48.042 26.3428 48.1878 25.9469 48.1878C25.5511 48.1878 25.1344 48.042 24.8428 47.7295L23.2803 46.167C22.6553 45.5628 22.6553 44.5628 23.2803 43.9587C23.8844 43.3545 24.8636 43.3545 25.4886 43.9587L25.9469 44.417L29.5303 40.8337C30.1344 40.2295 31.1136 40.2295 31.7386 40.8337C32.3428 41.4378 32.3428 42.4378 31.7386 43.042ZM31.7386 28.4587L27.0511 33.1462C26.7386 33.4587 26.3428 33.6045 25.9469 33.6045C25.5511 33.6045 25.1344 33.4587 24.8428 33.1462L23.2803 31.5837C22.6553 30.9795 22.6553 29.9795 23.2803 29.3753C23.8844 28.7712 24.8636 28.7712 25.4886 29.3753L25.9469 29.8337L29.5303 26.2503C30.1344 25.6462 31.1136 25.6462 31.7386 26.2503C32.3428 26.8545 32.3428 27.8545 31.7386 28.4587ZM47.5511 46.6253H36.6136C35.7594 46.6253 35.0511 45.917 35.0511 45.0628C35.0511 44.2087 35.7594 43.5003 36.6136 43.5003H47.5511C48.4261 43.5003 49.1136 44.2087 49.1136 45.0628C49.1136 45.917 48.4261 46.6253 47.5511 46.6253ZM47.5511 32.042H36.6136C35.7594 32.042 35.0511 31.3337 35.0511 30.4795C35.0511 29.6253 35.7594 28.917 36.6136 28.917H47.5511C48.4261 28.917 49.1136 29.6253 49.1136 30.4795C49.1136 31.3337 48.4261 32.042 47.5511 32.042Z" fill="#137FF2"/>
</svg>
