<svg width="73" height="76" viewBox="0 0 73 76" fill="none" xmlns="http://www.w3.org/2000/svg">
<rect x="0.399658" y="0.681641" width="72.5037" height="74.6361" rx="8.52984" fill="#F6EEFF"/>
<path d="M28.123 23.9795C27.2689 23.9795 26.5605 23.2712 26.5605 22.417V16.167C26.5605 15.3128 27.2689 14.6045 28.123 14.6045C28.9772 14.6045 29.6855 15.3128 29.6855 16.167V22.417C29.6855 23.2712 28.9772 23.9795 28.123 23.9795Z" fill="#7C32D2"/>
<path d="M43.748 23.9795C42.8939 23.9795 42.1855 23.2712 42.1855 22.417V16.167C42.1855 15.3128 42.8939 14.6045 43.748 14.6045C44.6022 14.6045 45.3105 15.3128 45.3105 16.167V22.417C45.3105 23.2712 44.6022 23.9795 43.748 23.9795Z" fill="#7C32D2"/>
<path d="M35.9355 41.3545C37.0189 41.3545 37.8105 40.7087 37.8105 39.6878C37.8105 38.6462 37.0189 38.042 35.9355 38.042C34.8522 38.042 34.0605 38.6462 34.0605 39.6878C34.0605 40.7087 34.8522 41.3545 35.9355 41.3545Z" fill="#7C32D2"/>
<path d="M35.9355 47.416C37.2472 47.416 38.3105 46.5486 38.3105 45.4785C38.3105 44.4085 37.2472 43.541 35.9355 43.541C34.6239 43.541 33.5605 44.4085 33.5605 45.4785C33.5605 46.5486 34.6239 47.416 35.9355 47.416Z" fill="#7C32D2"/>
<path d="M51.7064 21.3753C50.3314 20.3545 48.3522 21.3337 48.3522 23.0628V23.2712C48.3522 25.7087 46.6022 27.9587 44.1647 28.2087C41.3522 28.5003 38.9772 26.292 38.9772 23.542V21.3753C38.9772 20.2295 38.0397 19.292 36.8939 19.292H34.9772C33.8314 19.292 32.8939 20.2295 32.8939 21.3753V23.542C32.8939 25.1878 32.0397 26.6462 30.748 27.4587C30.5605 27.5837 30.3522 27.6878 30.1439 27.792C29.9564 27.8962 29.748 27.9795 29.5189 28.042C29.2689 28.1253 28.998 28.1878 28.7064 28.2087C28.373 28.2503 28.0397 28.2503 27.7064 28.2087C27.4147 28.1878 27.1439 28.1253 26.8939 28.042C26.6855 27.9795 26.4772 27.8962 26.2689 27.792C26.0605 27.6878 25.8522 27.5837 25.6647 27.4587C24.3522 26.542 23.5189 24.9587 23.5189 23.2712V23.0628C23.5189 21.4587 21.8105 20.5003 20.4564 21.1878C20.4355 21.2087 20.4147 21.2087 20.3939 21.2295C20.3105 21.2712 20.248 21.3128 20.1647 21.3753C20.1022 21.4378 20.0189 21.4795 19.9564 21.542C19.373 22.0003 18.8522 22.5212 18.4147 23.0837C18.1855 23.3337 17.998 23.6045 17.8314 23.8753C17.8105 23.8962 17.7897 23.917 17.7689 23.9587C17.5814 24.2295 17.4147 24.542 17.2689 24.8337C17.2272 24.8753 17.2064 24.8962 17.2064 24.9378C17.0814 25.1878 16.9564 25.4378 16.873 25.7087C16.8105 25.8128 16.7897 25.8962 16.748 26.0003C16.623 26.3128 16.5397 26.6253 16.4564 26.9378C16.373 27.2295 16.3105 27.542 16.2689 27.8545C16.2272 28.0837 16.2064 28.3128 16.1855 28.5628C16.1647 28.8545 16.1439 29.1462 16.1439 29.4378V47.6878C16.1439 53.292 20.6855 57.8337 26.2897 57.8337H45.5814C51.1855 57.8337 55.7272 53.292 55.7272 47.6878V29.4378C55.7272 26.1253 54.1439 23.2295 51.7064 21.3753ZM35.9355 50.0212C32.7064 50.0212 30.7272 48.417 30.7272 45.8337C30.7272 44.417 31.4564 43.1878 32.7272 42.4587C31.8105 41.8128 31.2064 40.8545 31.2064 39.542C31.2064 36.8337 33.373 35.4378 35.9355 35.4378C38.498 35.4378 40.6439 36.8337 40.6439 39.542C40.6439 40.8545 40.0605 41.8128 39.123 42.4587C40.4147 43.1878 41.1439 44.417 41.1439 45.8337C41.1439 48.417 39.1439 50.0212 35.9355 50.0212Z" fill="#7C32D2"/>
</svg>
