<svg width="24" height="25" viewBox="0 0 24 25" fill="none" xmlns="http://www.w3.org/2000/svg">
<path d="M18 7.66293C17.94 7.65293 17.87 7.65293 17.81 7.66293C16.43 7.61293 15.33 6.48293 15.33 5.08293C15.33 3.65293 16.48 2.50293 17.91 2.50293C19.34 2.50293 20.49 3.66293 20.49 5.08293C20.48 6.48293 19.38 7.61293 18 7.66293Z" stroke="#9EAAC3" stroke-width="1.5" stroke-linecap="round" stroke-linejoin="round"/>
<path d="M16.97 14.9428C18.34 15.1728 19.85 14.9328 20.91 14.2228C22.32 13.2828 22.32 11.7428 20.91 10.8028C19.84 10.0928 18.31 9.85284 16.94 10.0928" stroke="#9EAAC3" stroke-width="1.5" stroke-linecap="round" stroke-linejoin="round"/>
<path d="M5.96998 7.66293C6.02998 7.65293 6.09998 7.65293 6.15998 7.66293C7.53998 7.61293 8.63998 6.48293 8.63998 5.08293C8.63998 3.65293 7.48998 2.50293 6.05998 2.50293C4.62998 2.50293 3.47998 3.66293 3.47998 5.08293C3.48998 6.48293 4.58998 7.61293 5.96998 7.66293Z" stroke="#9EAAC3" stroke-width="1.5" stroke-linecap="round" stroke-linejoin="round"/>
<path d="M7 14.9428C5.63 15.1728 4.12 14.9328 3.06 14.2228C1.65 13.2828 1.65 11.7428 3.06 10.8028C4.13 10.0928 5.66 9.85284 7.03 10.0928" stroke="#9EAAC3" stroke-width="1.5" stroke-linecap="round" stroke-linejoin="round"/>
<path d="M12 15.1329C11.94 15.1229 11.87 15.1229 11.81 15.1329C10.43 15.0829 9.32996 13.9529 9.32996 12.5529C9.32996 11.1229 10.48 9.9729 11.91 9.9729C13.34 9.9729 14.49 11.1329 14.49 12.5529C14.48 13.9529 13.38 15.0929 12 15.1329Z" stroke="#9EAAC3" stroke-width="1.5" stroke-linecap="round" stroke-linejoin="round"/>
<path d="M9.08997 18.2828C7.67997 19.2228 7.67997 20.7628 9.08997 21.7028C10.69 22.7728 13.31 22.7728 14.91 21.7028C16.32 20.7628 16.32 19.2228 14.91 18.2828C13.32 17.2228 10.69 17.2228 9.08997 18.2828Z" stroke="#9EAAC3" stroke-width="1.5" stroke-linecap="round" stroke-linejoin="round"/>
</svg>
