<svg width="73" height="76" viewBox="0 0 73 76" fill="none" xmlns="http://www.w3.org/2000/svg">
<rect x="0.464111" y="0.681641" width="72.5037" height="74.6361" rx="8.52984" fill="#F7EFE2"/>
<path d="M44.7292 16.167H27.2709C19.6875 16.167 15.1667 20.6878 15.1667 28.2712V45.7295C15.1667 53.3128 19.6875 57.8337 27.2709 57.8337H44.7292C52.3125 57.8337 56.8334 53.3128 56.8334 45.7295V28.2712C56.8334 20.6878 52.3125 16.167 44.7292 16.167ZM31.7709 43.042L27.0834 47.7295C26.7709 48.042 26.375 48.1878 25.9792 48.1878C25.5834 48.1878 25.1667 48.042 24.875 47.7295L23.3125 46.167C22.6875 45.5628 22.6875 44.5628 23.3125 43.9587C23.9167 43.3545 24.8959 43.3545 25.5209 43.9587L25.9792 44.417L29.5625 40.8337C30.1667 40.2295 31.1459 40.2295 31.7709 40.8337C32.375 41.4378 32.375 42.4378 31.7709 43.042ZM31.7709 28.4587L27.0834 33.1462C26.7709 33.4587 26.375 33.6045 25.9792 33.6045C25.5834 33.6045 25.1667 33.4587 24.875 33.1462L23.3125 31.5837C22.6875 30.9795 22.6875 29.9795 23.3125 29.3753C23.9167 28.7712 24.8959 28.7712 25.5209 29.3753L25.9792 29.8337L29.5625 26.2503C30.1667 25.6462 31.1459 25.6462 31.7709 26.2503C32.375 26.8545 32.375 27.8545 31.7709 28.4587ZM47.5834 46.6253H36.6459C35.7917 46.6253 35.0834 45.917 35.0834 45.0628C35.0834 44.2087 35.7917 43.5003 36.6459 43.5003H47.5834C48.4584 43.5003 49.1459 44.2087 49.1459 45.0628C49.1459 45.917 48.4584 46.6253 47.5834 46.6253ZM47.5834 32.042H36.6459C35.7917 32.042 35.0834 31.3337 35.0834 30.4795C35.0834 29.6253 35.7917 28.917 36.6459 28.917H47.5834C48.4584 28.917 49.1459 29.6253 49.1459 30.4795C49.1459 31.3337 48.4584 32.042 47.5834 32.042Z" fill="#F29B07"/>
</svg>
