<svg width="73" height="76" viewBox="0 0 73 76" fill="none" xmlns="http://www.w3.org/2000/svg">
<rect x="0.399658" y="0.681641" width="72.5037" height="74.6361" rx="8.52984" fill="#E5F7F1"/>
<path d="M44.6647 16.167H27.2063C19.623 16.167 15.1022 20.6878 15.1022 28.2712V45.7295C15.1022 53.3128 19.623 57.8337 27.2063 57.8337H44.6647C52.248 57.8337 56.7688 53.3128 56.7688 45.7295V28.2712C56.7688 20.6878 52.248 16.167 44.6647 16.167ZM31.7063 43.042L27.0188 47.7295C26.7063 48.042 26.3105 48.1878 25.9147 48.1878C25.5188 48.1878 25.1022 48.042 24.8105 47.7295L23.248 46.167C22.623 45.5628 22.623 44.5628 23.248 43.9587C23.8522 43.3545 24.8313 43.3545 25.4563 43.9587L25.9147 44.417L29.498 40.8337C30.1022 40.2295 31.0813 40.2295 31.7063 40.8337C32.3105 41.4378 32.3105 42.4378 31.7063 43.042ZM31.7063 28.4587L27.0188 33.1462C26.7063 33.4587 26.3105 33.6045 25.9147 33.6045C25.5188 33.6045 25.1022 33.4587 24.8105 33.1462L23.248 31.5837C22.623 30.9795 22.623 29.9795 23.248 29.3753C23.8522 28.7712 24.8313 28.7712 25.4563 29.3753L25.9147 29.8337L29.498 26.2503C30.1022 25.6462 31.0813 25.6462 31.7063 26.2503C32.3105 26.8545 32.3105 27.8545 31.7063 28.4587ZM47.5188 46.6253H36.5813C35.7272 46.6253 35.0188 45.917 35.0188 45.0628C35.0188 44.2087 35.7272 43.5003 36.5813 43.5003H47.5188C48.3938 43.5003 49.0813 44.2087 49.0813 45.0628C49.0813 45.917 48.3938 46.6253 47.5188 46.6253ZM47.5188 32.042H36.5813C35.7272 32.042 35.0188 31.3337 35.0188 30.4795C35.0188 29.6253 35.7272 28.917 36.5813 28.917H47.5188C48.3938 28.917 49.0813 29.6253 49.0813 30.4795C49.0813 31.3337 48.3938 32.042 47.5188 32.042Z" fill="#0D805D"/>
</svg>
