<svg width="73" height="76" viewBox="0 0 73 76" fill="none" xmlns="http://www.w3.org/2000/svg">
<rect x="0.464111" y="0.681885" width="72.5037" height="74.6361" rx="8.52984" fill="#EDF5FF"/>
<path d="M47.985 27.8695C47.8391 27.8486 47.6933 27.8486 47.5474 27.8695C44.3183 27.7653 41.7558 25.1195 41.7558 21.8695C41.7558 18.557 44.4433 15.8486 47.7766 15.8486C51.0891 15.8486 53.7974 18.5361 53.7974 21.8695C53.7766 25.1195 51.2141 27.7653 47.985 27.8695Z" fill="#3439CA"/>
<path d="M54.7766 42.307C52.4433 43.8695 49.1724 44.4528 46.1516 44.057C46.9433 42.3487 47.3599 40.4528 47.3808 38.4528C47.3808 36.3695 46.9224 34.3903 46.0474 32.6612C49.1308 32.2445 52.4016 32.8278 54.7558 34.3903C58.0474 36.557 58.0474 40.1195 54.7766 42.307Z" fill="#3439CA"/>
<path d="M24.8808 27.8695C25.0266 27.8486 25.1725 27.8486 25.3183 27.8695C28.5475 27.7653 31.11 25.1195 31.11 21.8695C31.11 18.5361 28.4225 15.8486 25.0891 15.8486C21.7766 15.8486 19.0891 18.5361 19.0891 21.8695C19.0891 25.1195 21.6516 27.7653 24.8808 27.8695Z" fill="#3439CA"/>
<path d="M25.11 38.4527C25.11 40.4736 25.5475 42.3902 26.3391 44.1194C23.4016 44.4319 20.3391 43.8069 18.0891 42.3277C14.7975 40.1402 14.7975 36.5777 18.0891 34.3902C20.3183 32.8902 23.4641 32.2861 26.4225 32.6194C25.5683 34.3694 25.11 36.3486 25.11 38.4527Z" fill="#3439CA"/>
<path d="M36.7141 44.7444C36.5474 44.7236 36.3599 44.7236 36.1724 44.7444C32.3391 44.6194 29.2766 41.4736 29.2766 37.5986C29.2974 33.6402 32.4849 30.4319 36.4641 30.4319C40.4224 30.4319 43.6308 33.6402 43.6308 37.5986C43.6099 41.4736 40.5683 44.6194 36.7141 44.7444Z" fill="#3439CA"/>
<path d="M29.9433 49.0569C26.7975 51.1611 26.7975 54.6194 29.9433 56.7027C33.5266 59.0986 39.4016 59.0986 42.985 56.7027C46.1308 54.5986 46.1308 51.1402 42.985 49.0569C39.4225 46.6611 33.5475 46.6611 29.9433 49.0569Z" fill="#3439CA"/>
</svg>
