<svg width="170" height="40" viewBox="0 0 170 40" fill="none" xmlns="http://www.w3.org/2000/svg">
<g opacity="0.9">
<rect x="1" y="0.5" width="168" height="39" rx="3.5" stroke="#3439CA"/>
<path fill-rule="evenodd" clip-rule="evenodd" d="M20.5 16.6667C19.3954 16.6667 18.5 17.5622 18.5 18.6667V22.6667C18.5 23.7713 19.3954 24.6667 20.5 24.6667H28.5C29.6046 24.6667 30.5 23.7713 30.5 22.6667V18.6667C30.5 17.5622 29.6046 16.6667 28.5 16.6667H20.5ZM21.8333 20.6667C21.8333 22.1395 23.0272 23.3334 24.5 23.3334C25.9728 23.3334 27.1667 22.1395 27.1667 20.6667C27.1667 19.194 25.9728 18.0001 24.5 18.0001C23.0272 18.0001 21.8333 19.194 21.8333 20.6667Z" fill="#3439CA"/>
<rect opacity="0.3" x="22.5" y="14.6667" width="4" height="1.33333" rx="0.666667" fill="#3439CA"/>
<path opacity="0.3" fill-rule="evenodd" clip-rule="evenodd" d="M24.4998 21.9999C25.2362 21.9999 25.8332 21.403 25.8332 20.6666C25.8332 19.9302 25.2362 19.3333 24.4998 19.3333C23.7635 19.3333 23.1665 19.9302 23.1665 20.6666C23.1665 21.403 23.7635 21.9999 24.4998 21.9999Z" fill="#3439CA"/>
<path d="M43.364 14.608V21.728C43.364 23.568 44.436 24.56 46.132 24.56C47.844 24.56 48.916 23.568 48.916 21.728V14.608H50.74V21.632C50.74 24.4 48.964 26.16 46.132 26.16C43.3 26.16 41.556 24.4 41.556 21.632V14.608H43.364ZM57.3973 17.648C59.5733 17.648 61.2853 19.168 61.2853 21.92C61.2853 24.576 59.6533 26.16 57.3973 26.16C56.1493 26.16 55.0613 25.648 54.5653 24.8V29.2H52.8213V17.808H54.4213L54.5653 19.056C55.0613 18.208 56.1173 17.648 57.3973 17.648ZM57.0453 24.608C58.4693 24.608 59.4773 23.6 59.4773 21.92C59.4773 20.24 58.4853 19.2 57.0453 19.2C55.6693 19.184 54.6133 20.24 54.6133 21.936C54.6133 23.616 55.6693 24.608 57.0453 24.608ZM64.8153 14.112V26H63.0713V14.112H64.8153ZM66.627 21.904C66.627 19.376 68.355 17.632 70.835 17.632C73.331 17.632 75.059 19.376 75.059 21.904C75.059 24.432 73.331 26.16 70.835 26.16C68.355 26.16 66.627 24.432 66.627 21.904ZM68.419 21.888C68.419 23.568 69.379 24.656 70.835 24.656C72.307 24.656 73.267 23.568 73.267 21.888C73.267 20.192 72.307 19.12 70.835 19.12C69.379 19.12 68.419 20.192 68.419 21.888ZM84.2605 24.688H84.5645V26H83.5725C82.9005 26 82.2925 25.744 82.1645 24.96C81.7005 25.68 80.6925 26.16 79.4125 26.16C77.6045 26.16 76.4525 25.216 76.4525 23.648C76.4525 22.256 77.3325 21.232 79.5725 21.232H81.9565V20.816C81.9565 19.616 81.2365 19.056 80.1645 19.056C79.0765 19.056 78.3725 19.6 78.3245 20.448H76.7085C76.7565 18.672 78.2125 17.648 80.2285 17.648C82.1485 17.648 83.7165 18.608 83.7165 20.832V24.144C83.7165 24.592 83.8925 24.688 84.2605 24.688ZM81.9565 22.768V22.432H79.8125C78.6285 22.432 78.2605 22.96 78.2605 23.568C78.2605 24.4 78.9165 24.768 79.8125 24.768C81.0285 24.768 81.9565 24.112 81.9565 22.768ZM92.3466 14.112H94.1066V26H92.5066L92.3626 24.752C91.8666 25.584 90.7946 26.16 89.5306 26.16C87.2746 26.16 85.6426 24.592 85.6426 21.92C85.6426 19.168 87.3546 17.632 89.5306 17.632C90.8106 17.632 91.8506 18.176 92.3466 19.008V14.112ZM89.8826 24.608C91.2586 24.608 92.3146 23.616 92.3146 21.92C92.3146 20.24 91.2586 19.184 89.8826 19.2C88.4426 19.2 87.4506 20.256 87.4506 21.92C87.4506 23.616 88.4586 24.608 89.8826 24.608ZM101.163 14.608V26H99.3551V14.608H101.163ZM112.537 17.648C114.265 17.648 115.609 18.768 115.609 20.896V26H113.833V21.216C113.833 19.824 113.177 19.232 112.137 19.232C111.145 19.232 110.377 19.856 110.329 21.264V26H108.617V21.328C108.617 19.904 107.977 19.232 106.937 19.232C105.801 19.232 105.097 19.936 105.097 21.248V26H103.353V17.808H104.937L105.145 18.736C105.577 18.016 106.393 17.648 107.353 17.648C108.537 17.648 109.497 18.144 109.977 19.136C110.457 18.096 111.513 17.648 112.537 17.648ZM124.995 24.688H125.299V26H124.307C123.635 26 123.027 25.744 122.899 24.96C122.435 25.68 121.427 26.16 120.147 26.16C118.339 26.16 117.187 25.216 117.187 23.648C117.187 22.256 118.067 21.232 120.307 21.232H122.691V20.816C122.691 19.616 121.971 19.056 120.899 19.056C119.811 19.056 119.107 19.6 119.059 20.448H117.443C117.491 18.672 118.947 17.648 120.963 17.648C122.883 17.648 124.451 18.608 124.451 20.832V24.144C124.451 24.592 124.627 24.688 124.995 24.688ZM122.691 22.768V22.432H120.547C119.363 22.432 118.995 22.96 118.995 23.568C118.995 24.4 119.651 24.768 120.547 24.768C121.763 24.768 122.691 24.112 122.691 22.768ZM132.795 17.808H134.347V25.488C134.347 27.872 132.747 29.36 130.315 29.36C128.251 29.36 126.763 28.224 126.491 26.512H128.235C128.491 27.456 129.307 27.92 130.331 27.92C131.787 27.92 132.635 27.056 132.635 25.776V24.496C132.171 25.328 131.163 25.824 129.963 25.824C127.835 25.824 126.283 24.272 126.283 21.744C126.283 19.184 127.835 17.648 129.979 17.648C131.179 17.648 132.107 18.128 132.619 18.944L132.795 17.808ZM130.331 24.288C131.691 24.288 132.603 23.28 132.603 21.76C132.603 20.24 131.707 19.184 130.331 19.184C128.955 19.184 128.091 20.24 128.091 21.76C128.091 23.28 128.955 24.288 130.331 24.288ZM144.239 21.728V22.384H137.967C137.999 23.92 139.007 24.72 140.287 24.72C141.247 24.72 142.047 24.272 142.383 23.376H144.159C143.727 25.04 142.255 26.16 140.255 26.16C137.807 26.16 136.191 24.464 136.191 21.888C136.191 19.328 137.807 17.632 140.239 17.632C142.623 17.632 144.239 19.264 144.239 21.728ZM140.239 19.024C139.071 19.024 138.111 19.744 137.983 21.168H142.463C142.367 19.744 141.423 19.024 140.239 19.024Z" fill="#3439CA"/>
</g>
</svg>
