<svg width="73" height="76" viewBox="0 0 73 76" fill="none" xmlns="http://www.w3.org/2000/svg">
<rect x="0.399658" y="0.681885" width="72.5037" height="74.6361" rx="8.52984" fill="#F6EEFF"/>
<path d="M28.123 23.9792C27.2689 23.9792 26.5605 23.2709 26.5605 22.4167V16.1667C26.5605 15.3126 27.2689 14.6042 28.123 14.6042C28.9772 14.6042 29.6855 15.3126 29.6855 16.1667V22.4167C29.6855 23.2709 28.9772 23.9792 28.123 23.9792Z" fill="#7C32D2"/>
<path d="M43.748 23.9792C42.8939 23.9792 42.1855 23.2709 42.1855 22.4167V16.1667C42.1855 15.3126 42.8939 14.6042 43.748 14.6042C44.6022 14.6042 45.3105 15.3126 45.3105 16.1667V22.4167C45.3105 23.2709 44.6022 23.9792 43.748 23.9792Z" fill="#7C32D2"/>
<path d="M35.9355 41.3542C37.0188 41.3542 37.8105 40.7084 37.8105 39.6876C37.8105 38.6459 37.0188 38.0417 35.9355 38.0417C34.8522 38.0417 34.0605 38.6459 34.0605 39.6876C34.0605 40.7084 34.8522 41.3542 35.9355 41.3542Z" fill="#7C32D2"/>
<path d="M35.9355 47.4167C37.2472 47.4167 38.3105 46.5493 38.3105 45.4792C38.3105 44.4092 37.2472 43.5417 35.9355 43.5417C34.6239 43.5417 33.5605 44.4092 33.5605 45.4792C33.5605 46.5493 34.6239 47.4167 35.9355 47.4167Z" fill="#7C32D2"/>
<path d="M51.7064 21.3751C50.3314 20.3542 48.3522 21.3334 48.3522 23.0626V23.2709C48.3522 25.7084 46.6022 27.9584 44.1647 28.2084C41.3522 28.5001 38.9772 26.2917 38.9772 23.5417V21.3751C38.9772 20.2292 38.0397 19.2917 36.8939 19.2917H34.9772C33.8314 19.2917 32.8939 20.2292 32.8939 21.3751V23.5417C32.8939 25.1876 32.0397 26.6459 30.748 27.4584C30.5605 27.5834 30.3522 27.6876 30.1439 27.7917C29.9564 27.8959 29.748 27.9792 29.5189 28.0417C29.2689 28.1251 28.998 28.1876 28.7064 28.2084C28.373 28.2501 28.0397 28.2501 27.7064 28.2084C27.4147 28.1876 27.1439 28.1251 26.8939 28.0417C26.6855 27.9792 26.4772 27.8959 26.2689 27.7917C26.0605 27.6876 25.8522 27.5834 25.6647 27.4584C24.3522 26.5417 23.5189 24.9584 23.5189 23.2709V23.0626C23.5189 21.4584 21.8105 20.5001 20.4564 21.1876C20.4355 21.2084 20.4147 21.2084 20.3939 21.2292C20.3105 21.2709 20.248 21.3126 20.1647 21.3751C20.1022 21.4376 20.0189 21.4792 19.9564 21.5417C19.373 22.0001 18.8522 22.5209 18.4147 23.0834C18.1855 23.3334 17.998 23.6042 17.8314 23.8751C17.8105 23.8959 17.7897 23.9167 17.7689 23.9584C17.5814 24.2292 17.4147 24.5417 17.2689 24.8334C17.2272 24.8751 17.2064 24.8959 17.2064 24.9376C17.0814 25.1876 16.9564 25.4376 16.873 25.7084C16.8105 25.8126 16.7897 25.8959 16.748 26.0001C16.623 26.3126 16.5397 26.6251 16.4564 26.9376C16.373 27.2292 16.3105 27.5417 16.2689 27.8542C16.2272 28.0834 16.2064 28.3126 16.1855 28.5626C16.1647 28.8542 16.1439 29.1459 16.1439 29.4376V47.6876C16.1439 53.2917 20.6855 57.8334 26.2897 57.8334H45.5814C51.1855 57.8334 55.7272 53.2917 55.7272 47.6876V29.4376C55.7272 26.1251 54.1439 23.2292 51.7064 21.3751ZM35.9355 50.0209C32.7064 50.0209 30.7272 48.4167 30.7272 45.8334C30.7272 44.4167 31.4564 43.1876 32.7272 42.4584C31.8105 41.8126 31.2064 40.8542 31.2064 39.5417C31.2064 36.8334 33.373 35.4376 35.9355 35.4376C38.498 35.4376 40.6439 36.8334 40.6439 39.5417C40.6439 40.8542 40.0605 41.8126 39.123 42.4584C40.4147 43.1876 41.1439 44.4167 41.1439 45.8334C41.1439 48.4167 39.1439 50.0209 35.9355 50.0209Z" fill="#7C32D2"/>
</svg>
