<svg width="24" height="25" viewBox="0 0 24 25" fill="none" xmlns="http://www.w3.org/2000/svg">
<path d="M8 2.50293V5.50293" stroke="#9EAAC3" stroke-width="1.5" stroke-miterlimit="10" stroke-linecap="round" stroke-linejoin="round"/>
<path d="M16 2.50293V5.50293" stroke="#9EAAC3" stroke-width="1.5" stroke-miterlimit="10" stroke-linecap="round" stroke-linejoin="round"/>
<path d="M3.5 9.59277H20.5" stroke="#9EAAC3" stroke-width="1.5" stroke-miterlimit="10" stroke-linecap="round" stroke-linejoin="round"/>
<path d="M22 19.5029C22 20.2529 21.79 20.9629 21.42 21.5629C20.73 22.7229 19.46 23.5029 18 23.5029C16.99 23.5029 16.07 23.1329 15.37 22.5029C15.06 22.2429 14.79 21.9229 14.58 21.5629C14.21 20.9629 14 20.2529 14 19.5029C14 17.2929 15.79 15.5029 18 15.5029C19.2 15.5029 20.27 16.0329 21 16.8629C21.62 17.5729 22 18.4929 22 19.5029Z" stroke="#9EAAC3" stroke-width="1.5" stroke-miterlimit="10" stroke-linecap="round" stroke-linejoin="round"/>
<path d="M16.4399 19.503L17.4299 20.493L19.5599 18.5229" stroke="#9EAAC3" stroke-width="1.5" stroke-linecap="round" stroke-linejoin="round"/>
<path d="M3 13.6029V9.00293C3 6.00293 4.5 4.00293 8 4.00293H16C19.5 4.00293 21 6.00293 21 9.00293V16.8629C20.27 16.0329 19.2 15.5029 18 15.5029C15.79 15.5029 14 17.2929 14 19.5029C14 20.2529 14.21 20.9629 14.58 21.5629C14.79 21.9229 15.06 22.2429 15.37 22.5029H8C4.5 22.5029 3 20.5029 3 17.5029" stroke="#9EAAC3" stroke-width="1.5" stroke-miterlimit="10" stroke-linecap="round" stroke-linejoin="round"/>
<path d="M11.9955 14.2029H12.0045" stroke="#9EAAC3" stroke-width="1.5" stroke-linecap="round" stroke-linejoin="round"/>
<path d="M8.29431 14.2029H8.30329" stroke="#9EAAC3" stroke-width="1.5" stroke-linecap="round" stroke-linejoin="round"/>
<path d="M8.29431 17.2029H8.30329" stroke="#9EAAC3" stroke-width="1.5" stroke-linecap="round" stroke-linejoin="round"/>
</svg>
