<svg width="24" height="25" viewBox="0 0 24 25" fill="none" xmlns="http://www.w3.org/2000/svg">
<path d="M22 12.5029V17.5029C22 20.5029 20 22.5029 17 22.5029H7C4 22.5029 2 20.5029 2 17.5029V12.5029C2 9.78293 3.64 7.88293 6.19 7.56293C6.45 7.52293 6.72 7.50293 7 7.50293H17C17.26 7.50293 17.51 7.51292 17.75 7.55292C20.33 7.85292 22 9.76293 22 12.5029Z" stroke="#9EAAC3" stroke-width="1.5" stroke-linecap="round" stroke-linejoin="round"/>
<path d="M17.7514 7.55293C17.5114 7.51293 17.2614 7.50294 17.0014 7.50294H7.00141C6.72141 7.50294 6.45141 7.52294 6.19141 7.56294C6.33141 7.28294 6.53141 7.02294 6.77141 6.78294L10.0214 3.52293C11.3914 2.16293 13.6114 2.16293 14.9814 3.52293L16.7314 5.29295C17.3714 5.92295 17.7114 6.72293 17.7514 7.55293Z" stroke="#9EAAC3" stroke-width="1.5" stroke-linecap="round" stroke-linejoin="round"/>
<path d="M22 13.0029H19C17.9 13.0029 17 13.9029 17 15.0029C17 16.1029 17.9 17.0029 19 17.0029H22" stroke="#9EAAC3" stroke-width="1.5" stroke-linecap="round" stroke-linejoin="round"/>
</svg>
