<svg width="45" height="19" viewBox="0 0 45 19" fill="none" xmlns="http://www.w3.org/2000/svg">
<path d="M9.5 6H13.5V10" stroke="#0D805D" stroke-linecap="round" stroke-linejoin="round"/>
<path d="M13.5 6L7.85 11.65C7.75654 11.7416 7.63088 11.7929 7.5 11.7929C7.36912 11.7929 7.24346 11.7416 7.15 11.65L4.85 9.35C4.75654 9.25839 4.63088 9.20707 4.5 9.20707C4.36912 9.20707 4.24346 9.25839 4.15 9.35L0.5 13" stroke="#0D805D" stroke-linecap="round" stroke-linejoin="round"/>
<path d="M23.024 6.268L25.604 4.132H26.672V13H25.304V5.992L23.768 7.24L23.024 6.268ZM28.0098 5.38V4.132H33.6498V5.008L30.2898 13H28.8258L32.1018 5.38H28.0098ZM38.135 7.72C37.687 8.144 37.155 8.356 36.539 8.356C35.915 8.356 35.379 8.144 34.931 7.72C34.491 7.288 34.271 6.772 34.271 6.172C34.271 5.572 34.491 5.056 34.931 4.624C35.379 4.192 35.915 3.976 36.539 3.976C37.163 3.976 37.695 4.192 38.135 4.624C38.575 5.056 38.795 5.572 38.795 6.172C38.795 6.772 38.575 7.288 38.135 7.72ZM36.575 13H35.243L41.747 4.132H43.103L36.575 13ZM36.539 7.384C36.875 7.384 37.159 7.268 37.391 7.036C37.631 6.804 37.751 6.516 37.751 6.172C37.751 5.828 37.631 5.54 37.391 5.308C37.159 5.076 36.875 4.96 36.539 4.96C36.195 4.96 35.903 5.076 35.663 5.308C35.431 5.54 35.315 5.828 35.315 6.172C35.315 6.516 35.431 6.804 35.663 7.036C35.903 7.268 36.195 7.384 36.539 7.384ZM41.867 13.144C41.243 13.144 40.707 12.932 40.259 12.508C39.819 12.092 39.599 11.58 39.599 10.972C39.599 10.372 39.819 9.856 40.259 9.424C40.707 8.992 41.243 8.776 41.867 8.776C42.491 8.776 43.023 8.992 43.463 9.424C43.911 9.856 44.135 10.372 44.135 10.972C44.135 11.572 43.911 12.084 43.463 12.508C43.015 12.932 42.483 13.144 41.867 13.144ZM43.091 10.972C43.091 10.62 42.971 10.328 42.731 10.096C42.499 9.864 42.211 9.748 41.867 9.748C41.523 9.748 41.231 9.864 40.991 10.096C40.759 10.328 40.643 10.62 40.643 10.972C40.643 11.308 40.763 11.592 41.003 11.824C41.243 12.056 41.531 12.172 41.867 12.172C42.203 12.172 42.491 12.056 42.731 11.824C42.971 11.592 43.091 11.308 43.091 10.972Z" fill="#0D805D"/>
</svg>
