<svg width="25" height="24" viewBox="0 0 25 24" fill="none" xmlns="http://www.w3.org/2000/svg">
<g clip-path="url(#clip0_148_2810)">
<path fill-rule="evenodd" clip-rule="evenodd" d="M14.458 6.91262C16.7466 9.3091 16.6591 13.1071 14.2626 15.3957C11.8661 17.6842 8.06816 17.5967 5.7796 15.2002C3.49103 12.8038 3.57852 9.00578 5.975 6.71722C8.37148 4.42865 12.1695 4.51614 14.458 6.91262ZM16.3244 16.1067C18.8385 13.0253 18.722 8.48174 15.9044 5.53135C12.853 2.33604 7.78904 2.21939 4.59373 5.27081C1.39842 8.32223 1.28177 13.3862 4.33319 16.5815C7.15072 19.5319 11.6841 19.8575 14.878 17.4879L16.9926 19.7023C17.374 20.1017 18.007 20.1163 18.4064 19.7349C18.8059 19.3534 18.8204 18.7204 18.439 18.321L16.3244 16.1067Z" fill="#B2B2B2"/>
</g>
<defs>
<clipPath id="clip0_148_2810">
<rect width="24" height="24" fill="white" transform="translate(0.5)"/>
</clipPath>
</defs>
</svg>
