<svg width="24" height="25" viewBox="0 0 24 25" fill="none" xmlns="http://www.w3.org/2000/svg">
<path d="M12 15.5029C13.6569 15.5029 15 14.1598 15 12.5029C15 10.8461 13.6569 9.50293 12 9.50293C10.3431 9.50293 9 10.8461 9 12.5029C9 14.1598 10.3431 15.5029 12 15.5029Z" stroke="#9EAAC3" stroke-width="1.5" stroke-miterlimit="10" stroke-linecap="round" stroke-linejoin="round"/>
<path d="M2 13.3829V11.6229C2 10.5829 2.85 9.72287 3.9 9.72287C5.71 9.72287 6.45 8.44287 5.54 6.87287C5.02 5.97287 5.33 4.80287 6.24 4.28287L7.97 3.29287C8.76 2.82287 9.78 3.10287 10.25 3.89287L10.36 4.08287C11.26 5.65287 12.74 5.65287 13.65 4.08287L13.76 3.89287C14.23 3.10287 15.25 2.82287 16.04 3.29287L17.77 4.28287C18.68 4.80287 18.99 5.97287 18.47 6.87287C17.56 8.44287 18.3 9.72287 20.11 9.72287C21.15 9.72287 22.01 10.5729 22.01 11.6229V13.3829C22.01 14.4229 21.16 15.2829 20.11 15.2829C18.3 15.2829 17.56 16.5629 18.47 18.1329C18.99 19.0429 18.68 20.2029 17.77 20.7229L16.04 21.7129C15.25 22.1829 14.23 21.9029 13.76 21.1129L13.65 20.9229C12.75 19.3529 11.27 19.3529 10.36 20.9229L10.25 21.1129C9.78 21.9029 8.76 22.1829 7.97 21.7129L6.24 20.7229C5.33 20.2029 5.02 19.0329 5.54 18.1329C6.45 16.5629 5.71 15.2829 3.9 15.2829C2.85 15.2829 2 14.4229 2 13.3829Z" stroke="#9EAAC3" stroke-width="1.5" stroke-miterlimit="10" stroke-linecap="round" stroke-linejoin="round"/>
</svg>
