<svg width="159" height="158" viewBox="0 0 159 158" fill="none" xmlns="http://www.w3.org/2000/svg">
<circle cx="79.4998" cy="78.6052" r="78.6052" fill="#23A26D" fill-opacity="0.12"/>
<path d="M78.0971 41.1746C57.4726 41.1746 40.666 57.9811 40.666 78.6056C40.666 99.2301 57.4726 116.037 78.0971 116.037C98.7216 116.037 115.528 99.2301 115.528 78.6056C115.528 57.9811 98.7216 41.1746 78.0971 41.1746ZM95.9891 69.9965L74.7657 91.2199C74.2417 91.7439 73.5305 92.0434 72.7819 92.0434C72.0332 92.0434 71.3221 91.7439 70.798 91.2199L60.205 80.6269C59.1195 79.5414 59.1195 77.7447 60.205 76.6592C61.2905 75.5737 63.0872 75.5737 64.1727 76.6592L72.7819 85.2683L92.0214 66.0288C93.1069 64.9433 94.9036 64.9433 95.9891 66.0288C97.0746 67.1143 97.0746 68.8735 95.9891 69.9965Z" fill="#23A26D"/>
</svg>
