<svg width="34" height="35" viewBox="0 0 34 35" fill="none" xmlns="http://www.w3.org/2000/svg">
<rect width="34" height="35" rx="4" fill="#D6D6D7"/>
<path d="M21 7H13C9.5 7 8 9 8 12V22C8 25 9.5 27 13 27H21C24.5 27 26 25 26 22V12C26 9 24.5 7 21 7ZM13 17.25H17C17.41 17.25 17.75 17.59 17.75 18C17.75 18.41 17.41 18.75 17 18.75H13C12.59 18.75 12.25 18.41 12.25 18C12.25 17.59 12.59 17.25 13 17.25ZM21 22.75H13C12.59 22.75 12.25 22.41 12.25 22C12.25 21.59 12.59 21.25 13 21.25H21C21.41 21.25 21.75 21.59 21.75 22C21.75 22.41 21.41 22.75 21 22.75ZM23.5 14.25H21.5C19.98 14.25 18.75 13.02 18.75 11.5V9.5C18.75 9.09 19.09 8.75 19.5 8.75C19.91 8.75 20.25 9.09 20.25 9.5V11.5C20.25 12.19 20.81 12.75 21.5 12.75H23.5C23.91 12.75 24.25 13.09 24.25 13.5C24.25 13.91 23.91 14.25 23.5 14.25Z" fill="#6C6C6F"/>
</svg>
