<svg width="34" height="35" viewBox="0 0 34 35" fill="none" xmlns="http://www.w3.org/2000/svg">
<rect width="34" height="35" rx="4" fill="#F2F2FF"/>
<path d="M25.4568 12.4396C24.6726 11.5724 23.3626 11.1388 21.4621 11.1388H21.2407V11.1019C21.2407 9.552 21.2407 7.63306 17.7718 7.63306H16.3695C12.9007 7.63306 12.9007 9.56122 12.9007 11.1019V11.148H12.6792C10.7695 11.148 9.46871 11.5816 8.68452 12.4489C7.77118 13.4637 7.79886 14.8291 7.89112 15.7609L7.90034 15.8254L7.9718 16.5758C7.98496 16.7139 8.05938 16.8387 8.17552 16.9147C8.39676 17.0595 8.76702 17.2982 8.98897 17.4215C9.11813 17.5045 9.25652 17.5783 9.3949 17.6521C10.9725 18.5193 12.7069 19.1006 14.469 19.3866C14.552 20.2538 14.9303 21.2686 16.9507 21.2686C18.9711 21.2686 19.3678 20.263 19.4324 19.3681C21.3145 19.0637 23.1319 18.4086 24.7741 17.4492C24.8294 17.4215 24.8663 17.3938 24.9125 17.3661C25.2785 17.1593 25.6582 16.9044 26.0043 16.6547C26.1086 16.5795 26.1752 16.4632 26.1894 16.3354L26.2041 16.2037L26.2502 15.7701C26.2594 15.7147 26.2594 15.6686 26.2686 15.604C26.3424 14.6722 26.324 13.3991 25.4568 12.4396ZM18.0763 18.7592C18.0763 19.7371 18.0763 19.8847 16.9415 19.8847C15.8067 19.8847 15.8067 19.7095 15.8067 18.7684V17.606H18.0763V18.7592ZM14.2199 11.1388V11.1019C14.2199 9.53354 14.2199 8.95233 16.3695 8.95233H17.7718C19.9214 8.95233 19.9214 9.54277 19.9214 11.1019V11.148H14.2199V11.1388Z" fill="#363CE2"/>
<path d="M25.2575 18.6707C25.5838 18.5154 25.9595 18.774 25.9268 19.1338L25.5957 22.7815C25.402 24.6266 24.6454 26.5086 20.5862 26.5086H13.5562C9.4969 26.5086 8.7404 24.6266 8.54666 22.7907L8.23233 19.3331C8.2 18.9774 8.56714 18.7192 8.89247 18.8663C9.94366 19.3419 11.8839 20.1857 13.0825 20.4996C13.2341 20.5393 13.3567 20.6478 13.4231 20.7898C13.9831 21.9874 15.1975 22.6246 16.9512 22.6246C18.6876 22.6246 19.9174 21.9628 20.4793 20.7623C20.5457 20.6202 20.6685 20.5118 20.8201 20.4719C22.0929 20.137 24.1581 19.1938 25.2575 18.6707Z" fill="#363CE2"/>
</svg>
