<svg width="34" height="35" viewBox="0 0 34 35" fill="none" xmlns="http://www.w3.org/2000/svg">
<rect width="34" height="35" rx="4" fill="#EDFFFC"/>
<path d="M17.0001 9.6499C12.2201 9.6499 8.33008 13.5399 8.33008 18.3199C8.33008 23.0999 12.2201 26.9999 17.0001 26.9999C21.7801 26.9999 25.6701 23.1099 25.6701 18.3299C25.6701 13.5499 21.7801 9.6499 17.0001 9.6499ZM17.7501 17.9999C17.7501 18.4099 17.4101 18.7499 17.0001 18.7499C16.5901 18.7499 16.2501 18.4099 16.2501 17.9999V12.9999C16.2501 12.5899 16.5901 12.2499 17.0001 12.2499C17.4101 12.2499 17.7501 12.5899 17.7501 12.9999V17.9999Z" fill="#22CAAD"/>
<path d="M19.8896 8.45H14.1096C13.7096 8.45 13.3896 8.13 13.3896 7.73C13.3896 7.33 13.7096 7 14.1096 7H19.8896C20.2896 7 20.6096 7.32 20.6096 7.72C20.6096 8.12 20.2896 8.45 19.8896 8.45Z" fill="#22CAAD"/>
</svg>
