<svg width="34" height="35" viewBox="0 0 34 35" fill="none" xmlns="http://www.w3.org/2000/svg">
<rect width="34" height="35" rx="4" fill="#FFF8F5"/>
<path d="M22.3905 20.67L18.3505 17H15.6405L11.6005 20.67C10.4705 21.69 10.1005 23.26 10.6505 24.68C11.2005 26.09 12.5405 27 14.0505 27H19.9405C21.4605 27 22.7905 26.09 23.3405 24.68C23.8905 23.26 23.5205 21.69 22.3905 20.67ZM18.8205 23.14H15.1805C14.8005 23.14 14.5005 22.83 14.5005 22.46C14.5005 22.09 14.8105 21.78 15.1805 21.78H18.8205C19.2005 21.78 19.5005 22.09 19.5005 22.46C19.5005 22.83 19.1905 23.14 18.8205 23.14Z" fill="#F86624"/>
<path d="M23.3497 9.32C22.7997 7.91 21.4597 7 19.9497 7H14.0497C12.5397 7 11.1997 7.91 10.6497 9.32C10.1097 10.74 10.4797 12.31 11.6097 13.33L15.6497 17H18.3597L22.3997 13.33C23.5197 12.31 23.8897 10.74 23.3497 9.32ZM18.8197 12.23H15.1797C14.7997 12.23 14.4997 11.92 14.4997 11.55C14.4997 11.18 14.8097 10.87 15.1797 10.87H18.8197C19.1997 10.87 19.4997 11.18 19.4997 11.55C19.4997 11.92 19.1897 12.23 18.8197 12.23Z" fill="#F86624"/>
</svg>
