<svg width="73" height="76" viewBox="0 0 73 76" fill="none" xmlns="http://www.w3.org/2000/svg">
<rect x="0.431885" y="0.681885" width="72.5037" height="74.6361" rx="8.52984" fill="#E5F7F1"/>
<path d="M44.6969 16.1667H27.2386C19.6553 16.1667 15.1344 20.6876 15.1344 28.2709V45.7292C15.1344 53.3126 19.6553 57.8334 27.2386 57.8334H44.6969C52.2803 57.8334 56.8011 53.3126 56.8011 45.7292V28.2709C56.8011 20.6876 52.2803 16.1667 44.6969 16.1667ZM31.7386 43.0417L27.0511 47.7292C26.7386 48.0417 26.3428 48.1876 25.9469 48.1876C25.5511 48.1876 25.1344 48.0417 24.8428 47.7292L23.2803 46.1667C22.6553 45.5626 22.6553 44.5626 23.2803 43.9584C23.8844 43.3542 24.8636 43.3542 25.4886 43.9584L25.9469 44.4167L29.5303 40.8334C30.1344 40.2292 31.1136 40.2292 31.7386 40.8334C32.3428 41.4376 32.3428 42.4376 31.7386 43.0417ZM31.7386 28.4584L27.0511 33.1459C26.7386 33.4584 26.3428 33.6042 25.9469 33.6042C25.5511 33.6042 25.1344 33.4584 24.8428 33.1459L23.2803 31.5834C22.6553 30.9792 22.6553 29.9792 23.2803 29.3751C23.8844 28.7709 24.8636 28.7709 25.4886 29.3751L25.9469 29.8334L29.5303 26.2501C30.1344 25.6459 31.1136 25.6459 31.7386 26.2501C32.3428 26.8542 32.3428 27.8542 31.7386 28.4584ZM47.5511 46.6251H36.6136C35.7594 46.6251 35.0511 45.9167 35.0511 45.0626C35.0511 44.2084 35.7594 43.5001 36.6136 43.5001H47.5511C48.4261 43.5001 49.1136 44.2084 49.1136 45.0626C49.1136 45.9167 48.4261 46.6251 47.5511 46.6251ZM47.5511 32.0417H36.6136C35.7594 32.0417 35.0511 31.3334 35.0511 30.4792C35.0511 29.6251 35.7594 28.9167 36.6136 28.9167H47.5511C48.4261 28.9167 49.1136 29.6251 49.1136 30.4792C49.1136 31.3334 48.4261 32.0417 47.5511 32.0417Z" fill="#0D805D"/>
</svg>
