<svg width="8" height="5" viewBox="0 0 8 5" fill="none" xmlns="http://www.w3.org/2000/svg">
<path d="M0.383442 4.83817C0.488927 4.94363 0.631975 5.00287 0.78113 5.00287C0.930285 5.00287 1.07333 4.94363 1.17882 4.83817L3.96319 2.0538L6.74757 4.83817C6.85366 4.94064 6.99575 4.99734 7.14323 4.99605C7.29072 4.99477 7.4318 4.93561 7.53609 4.83132C7.64038 4.72703 7.69954 4.58595 7.70082 4.43846C7.7021 4.29098 7.64541 4.14889 7.54294 4.0428L4.36088 0.860737C4.2554 0.755285 4.11235 0.696045 3.96319 0.696045C3.81404 0.696045 3.67099 0.755285 3.56551 0.860737L0.383442 4.0428C0.27799 4.14828 0.21875 4.29133 0.21875 4.44049C0.21875 4.58964 0.27799 4.73269 0.383442 4.83817Z" fill="#78808A"/>
</svg>
