<svg width="8" height="5" viewBox="0 0 8 5" fill="none" xmlns="http://www.w3.org/2000/svg">
<path d="M0.383442 0.16744C0.488927 0.0619879 0.631975 0.00274801 0.78113 0.00274801C0.930285 0.00274801 1.07333 0.0619879 1.17882 0.16744L3.96319 2.95182L6.74757 0.16744C6.85366 0.0649767 6.99575 0.0082798 7.14323 0.00956154C7.29072 0.0108433 7.4318 0.0700006 7.53609 0.174293C7.64038 0.278584 7.69954 0.419667 7.70082 0.567153C7.7021 0.714638 7.64541 0.856727 7.54294 0.962815L4.36088 4.14488C4.2554 4.25033 4.11235 4.30957 3.96319 4.30957C3.81404 4.30957 3.67099 4.25033 3.56551 4.14488L0.383442 0.962815C0.27799 0.857331 0.21875 0.714283 0.21875 0.565128C0.21875 0.415973 0.27799 0.272925 0.383442 0.16744Z" fill="#78808A"/>
</svg>
